<svg width="10" height="10" viewBox="0 0 10 10" fill="none" xmlns="http://www.w3.org/2000/svg">
<path d="M0.28312 9.71667C0.360589 9.79478 0.452756 9.85677 0.554306 9.89908C0.655855 9.94139 0.764776 9.96317 0.874786 9.96317C0.984796 9.96317 1.09372 9.94139 1.19527 9.89908C1.29682 9.85677 1.38898 9.79478 1.46645 9.71667L4.99979 6.175L8.53312 9.71667C8.61059 9.79478 8.70275 9.85677 8.80431 9.89908C8.90585 9.94139 9.01478 9.96317 9.12479 9.96317C9.2348 9.96317 9.34371 9.94139 9.44526 9.89908C9.54681 9.85677 9.63898 9.79478 9.71645 9.71667C9.79456 9.6392 9.85655 9.54703 9.89886 9.44549C9.94117 9.34394 9.96295 9.23502 9.96295 9.12501C9.96295 9.015 9.94117 8.90607 9.89886 8.80453C9.85655 8.70298 9.79456 8.61081 9.71645 8.53334L6.17479 5L9.71645 1.46667C9.79415 1.38897 9.85578 1.29673 9.89783 1.19521C9.93988 1.09369 9.96153 0.984888 9.96153 0.875005C9.96153 0.765122 9.93988 0.656315 9.89783 0.554797C9.85578 0.453279 9.79415 0.361037 9.71645 0.283338C9.63875 0.205639 9.54651 0.144005 9.44499 0.101955C9.34347 0.0599047 9.23467 0.0382614 9.12479 0.0382614C9.0149 0.0382614 8.90609 0.0599047 8.80458 0.101955C8.70306 0.144005 8.61082 0.205639 8.53312 0.283338L4.99979 3.82501L1.46645 0.283338C1.30953 0.126418 1.0967 0.0382614 0.874786 0.0382614C0.652868 0.0382614 0.440039 0.126418 0.28312 0.283338C0.1262 0.440258 0.0380429 0.653087 0.0380429 0.875005C0.0380429 1.09692 0.1262 1.30975 0.28312 1.46667L3.82479 5L0.28312 8.53334C0.205013 8.61081 0.143018 8.70298 0.10071 8.80453C0.0584032 8.90607 0.0366211 9.015 0.0366211 9.12501C0.0366211 9.23502 0.0584032 9.34394 0.10071 9.44549C0.143018 9.54703 0.205013 9.6392 0.28312 9.71667Z" fill="white"/>
</svg>
