<svg width="10" height="18" viewBox="0 0 10 18" fill="none" xmlns="http://www.w3.org/2000/svg">
<path d="M0.79 16.7099C0.882963 16.8037 0.993564 16.8781 1.11542 16.9288C1.23728 16.9796 1.36799 17.0057 1.5 17.0057C1.63201 17.0057 1.76272 16.9796 1.88458 16.9288C2.00644 16.8781 2.11704 16.8037 2.21 16.7099L9.21 9.70994C9.30373 9.61698 9.37812 9.50638 9.42889 9.38452C9.47966 9.26266 9.5058 9.13195 9.5058 8.99994C9.5058 8.86793 9.47966 8.73722 9.42889 8.61536C9.37812 8.49351 9.30373 8.38291 9.21 8.28994L2.21 1.28994C2.0217 1.10164 1.7663 0.99585 1.5 0.99585C1.2337 0.99585 0.978304 1.10164 0.79 1.28994C0.601696 1.47824 0.495909 1.73364 0.495909 1.99994C0.495909 2.26624 0.601696 2.52164 0.79 2.70994L7.09 8.99994L0.79 15.2899C0.696272 15.3829 0.621877 15.4935 0.571109 15.6154C0.52034 15.7372 0.494202 15.8679 0.494202 15.9999C0.494202 16.132 0.52034 16.2627 0.571109 16.3845C0.621877 16.5064 0.696272 16.617 0.79 16.7099Z" fill="black"/>
</svg>
